<?xml version="1.0" encoding="UTF-8" standalone="no"?>
<!-- Created with Inkscape (http://www.inkscape.org/) -->

<svg
   xmlns:dc="http://purl.org/dc/elements/1.1/"
   xmlns:cc="http://creativecommons.org/ns#"
   xmlns:rdf="http://www.w3.org/1999/02/22-rdf-syntax-ns#"
   xmlns:svg="http://www.w3.org/2000/svg"
   xmlns="http://www.w3.org/2000/svg"
   version="1.1"
   width="240"
   height="34.0485"
   viewBox="0 0 240 34.0485"
   id="svg8061"
   xml:space="preserve"><metadata
   id="metadata8070"><rdf:RDF><cc:Work
       rdf:about=""><dc:format>image/svg+xml</dc:format><dc:type
         rdf:resource="http://purl.org/dc/dcmitype/StillImage" /><dc:title></dc:title></cc:Work></rdf:RDF></metadata><defs
   id="defs8068" />
<g
   transform="matrix(8.3024874,0,0,8.3024874,-4.5331581,-26.543052)"
   id="HEADER">
	<path
   d="M 7.781,7.145 H 7.365 V 3.796 H 6.463 V 3.41 H 8.692 V 3.796 H 7.781 v 3.349 z m 4.031,0 H 11.395 V 3.41 h 0.54 c 0.708,0 1.367,0.188 1.367,1.03 0,0.575 -0.361,0.98 -0.937,1.03 l 1.189,1.674 h -0.51 l -1.129,-1.64 h -0.104 v 1.641 z m 0,-2.007 h 0.129 c 0.47,0 0.946,-0.089 0.946,-0.668 0,-0.614 -0.451,-0.674 -0.951,-0.674 h -0.124 v 1.342 z m 4.972,2.007 H 16.367 V 3.41 h 0.417 v 3.735 z m 3.443,-1.511 c 0,0.276 -0.011,0.593 0.163,0.831 0.164,0.229 0.48,0.356 0.754,0.356 0.267,0 0.559,-0.123 0.731,-0.331 0.198,-0.238 0.184,-0.565 0.184,-0.856 V 3.41 h 0.417 v 2.337 c 0,0.408 -0.031,0.728 -0.327,1.035 C 21.891,7.061 21.519,7.21 21.144,7.21 20.791,7.21 20.43,7.075 20.177,6.828 19.85,6.516 19.811,6.174 19.811,5.747 V 3.41 h 0.416 v 2.224 z m 5.75,-2.437 1.356,3.135 1.361,-3.135 0.759,3.948 H 29.027 L 28.547,4.619 H 28.536 L 27.333,7.298 26.135,4.619 H 26.126 L 25.645,7.145 H 25.219 L 25.977,3.197 z M 2.062,4.424 0.997,7.126 H 0.546 L 2.062,3.372 3.578,7.126 H 3.126 L 2.062,4.424 z"
   id="path8064"
   style="fill:#ffffff" />
</g>
</svg>
